<mxfile host="app.diagrams.net" modified="2023-03-08T21:39:00.200Z" agent="5.0 (Windows)" etag="_RcsKJWrTZO55503Un4b" version="21.0.2" type="github">
  <diagram name="Page-1" id="3M1EGsl8p2eKksEgXylc">
    <mxGraphModel dx="1100" dy="583" grid="1" gridSize="10" guides="1" tooltips="1" connect="1" arrows="1" fold="1" page="1" pageScale="1" pageWidth="850" pageHeight="1100" background="#ffffff" math="0" shadow="0">
      <root>
        <mxCell id="0" />
        <mxCell id="1" parent="0" />
        <mxCell id="-BERife1kC8m-4Oo77Mu-1" style="edgeStyle=orthogonalEdgeStyle;rounded=0;orthogonalLoop=1;jettySize=auto;html=1;exitX=1;exitY=0.5;exitDx=0;exitDy=0;startArrow=none;startFill=0;endArrow=none;endFill=0;" edge="1" parent="1" source="-BERife1kC8m-4Oo77Mu-7" target="-BERife1kC8m-4Oo77Mu-35">
          <mxGeometry relative="1" as="geometry" />
        </mxCell>
        <mxCell id="-BERife1kC8m-4Oo77Mu-2" style="edgeStyle=orthogonalEdgeStyle;rounded=0;orthogonalLoop=1;jettySize=auto;html=1;exitX=0;exitY=0.5;exitDx=0;exitDy=0;entryX=1;entryY=0.5;entryDx=0;entryDy=0;startArrow=none;startFill=0;endArrow=none;endFill=0;" edge="1" parent="1" source="-BERife1kC8m-4Oo77Mu-7" target="-BERife1kC8m-4Oo77Mu-45">
          <mxGeometry relative="1" as="geometry" />
        </mxCell>
        <mxCell id="-BERife1kC8m-4Oo77Mu-3" style="rounded=0;orthogonalLoop=1;jettySize=auto;html=1;exitX=0;exitY=0.25;exitDx=0;exitDy=0;entryX=1;entryY=1;entryDx=0;entryDy=0;startArrow=none;startFill=0;endArrow=none;endFill=0;" edge="1" parent="1" source="-BERife1kC8m-4Oo77Mu-7" target="-BERife1kC8m-4Oo77Mu-44">
          <mxGeometry relative="1" as="geometry" />
        </mxCell>
        <mxCell id="-BERife1kC8m-4Oo77Mu-4" style="edgeStyle=none;rounded=0;orthogonalLoop=1;jettySize=auto;html=1;exitX=0.25;exitY=0;exitDx=0;exitDy=0;entryX=0.358;entryY=1.016;entryDx=0;entryDy=0;startArrow=none;startFill=0;endArrow=none;endFill=0;entryPerimeter=0;" edge="1" parent="1" source="-BERife1kC8m-4Oo77Mu-7" target="-BERife1kC8m-4Oo77Mu-43">
          <mxGeometry relative="1" as="geometry" />
        </mxCell>
        <mxCell id="-BERife1kC8m-4Oo77Mu-5" style="edgeStyle=none;rounded=0;orthogonalLoop=1;jettySize=auto;html=1;exitX=0;exitY=1;exitDx=0;exitDy=0;entryX=0.899;entryY=0.227;entryDx=0;entryDy=0;entryPerimeter=0;startArrow=none;startFill=0;endArrow=none;endFill=0;" edge="1" parent="1" source="-BERife1kC8m-4Oo77Mu-7" target="-BERife1kC8m-4Oo77Mu-46">
          <mxGeometry relative="1" as="geometry" />
        </mxCell>
        <mxCell id="-BERife1kC8m-4Oo77Mu-6" style="edgeStyle=none;rounded=0;orthogonalLoop=1;jettySize=auto;html=1;exitX=0.25;exitY=1;exitDx=0;exitDy=0;entryX=0.427;entryY=-0.01;entryDx=0;entryDy=0;entryPerimeter=0;startArrow=none;startFill=0;endArrow=none;endFill=0;" edge="1" parent="1" source="-BERife1kC8m-4Oo77Mu-7" target="-BERife1kC8m-4Oo77Mu-47">
          <mxGeometry relative="1" as="geometry" />
        </mxCell>
        <mxCell id="-BERife1kC8m-4Oo77Mu-7" value="Konsumen" style="rounded=0;whiteSpace=wrap;html=1;fillColor=#dae8fc;strokeColor=#6c8ebf;" vertex="1" parent="1">
          <mxGeometry x="230" y="560" width="100" height="40" as="geometry" />
        </mxCell>
        <mxCell id="-BERife1kC8m-4Oo77Mu-8" style="edgeStyle=none;rounded=0;orthogonalLoop=1;jettySize=auto;html=1;exitX=0.5;exitY=0;exitDx=0;exitDy=0;entryX=0.568;entryY=1.004;entryDx=0;entryDy=0;entryPerimeter=0;startArrow=none;startFill=0;endArrow=none;endFill=0;" edge="1" parent="1" source="-BERife1kC8m-4Oo77Mu-15" target="-BERife1kC8m-4Oo77Mu-58">
          <mxGeometry relative="1" as="geometry" />
        </mxCell>
        <mxCell id="-BERife1kC8m-4Oo77Mu-9" style="edgeStyle=none;rounded=0;orthogonalLoop=1;jettySize=auto;html=1;exitX=0.5;exitY=1;exitDx=0;exitDy=0;entryX=0.676;entryY=0.06;entryDx=0;entryDy=0;entryPerimeter=0;startArrow=none;startFill=0;endArrow=none;endFill=0;" edge="1" parent="1" source="-BERife1kC8m-4Oo77Mu-15" target="-BERife1kC8m-4Oo77Mu-59">
          <mxGeometry relative="1" as="geometry" />
        </mxCell>
        <mxCell id="-BERife1kC8m-4Oo77Mu-10" style="edgeStyle=none;rounded=0;orthogonalLoop=1;jettySize=auto;html=1;exitX=0.75;exitY=1;exitDx=0;exitDy=0;entryX=0.5;entryY=0;entryDx=0;entryDy=0;startArrow=none;startFill=0;endArrow=none;endFill=0;" edge="1" parent="1" source="-BERife1kC8m-4Oo77Mu-15" target="-BERife1kC8m-4Oo77Mu-57">
          <mxGeometry relative="1" as="geometry" />
        </mxCell>
        <mxCell id="-BERife1kC8m-4Oo77Mu-11" style="edgeStyle=none;rounded=0;orthogonalLoop=1;jettySize=auto;html=1;exitX=1;exitY=1;exitDx=0;exitDy=0;entryX=0;entryY=0;entryDx=0;entryDy=0;startArrow=none;startFill=0;endArrow=none;endFill=0;" edge="1" parent="1" source="-BERife1kC8m-4Oo77Mu-15" target="-BERife1kC8m-4Oo77Mu-56">
          <mxGeometry relative="1" as="geometry" />
        </mxCell>
        <mxCell id="-BERife1kC8m-4Oo77Mu-12" style="edgeStyle=none;rounded=0;orthogonalLoop=1;jettySize=auto;html=1;exitX=1;exitY=0.5;exitDx=0;exitDy=0;entryX=0;entryY=1;entryDx=0;entryDy=0;startArrow=none;startFill=0;endArrow=none;endFill=0;" edge="1" parent="1" source="-BERife1kC8m-4Oo77Mu-15" target="-BERife1kC8m-4Oo77Mu-55">
          <mxGeometry relative="1" as="geometry" />
        </mxCell>
        <mxCell id="-BERife1kC8m-4Oo77Mu-13" style="edgeStyle=none;rounded=0;orthogonalLoop=1;jettySize=auto;html=1;exitX=1;exitY=0.25;exitDx=0;exitDy=0;entryX=0;entryY=1;entryDx=0;entryDy=0;startArrow=none;startFill=0;endArrow=none;endFill=0;" edge="1" parent="1" source="-BERife1kC8m-4Oo77Mu-15" target="-BERife1kC8m-4Oo77Mu-54">
          <mxGeometry relative="1" as="geometry" />
        </mxCell>
        <mxCell id="-BERife1kC8m-4Oo77Mu-14" style="edgeStyle=none;rounded=0;orthogonalLoop=1;jettySize=auto;html=1;exitX=0.75;exitY=0;exitDx=0;exitDy=0;entryX=0.5;entryY=1;entryDx=0;entryDy=0;startArrow=none;startFill=0;endArrow=none;endFill=0;" edge="1" parent="1" source="-BERife1kC8m-4Oo77Mu-15" target="-BERife1kC8m-4Oo77Mu-53">
          <mxGeometry relative="1" as="geometry" />
        </mxCell>
        <mxCell id="-BERife1kC8m-4Oo77Mu-15" value="Karyawan" style="rounded=0;whiteSpace=wrap;html=1;fillColor=#dae8fc;strokeColor=#6c8ebf;" vertex="1" parent="1">
          <mxGeometry x="840" y="560" width="100" height="40" as="geometry" />
        </mxCell>
        <mxCell id="-BERife1kC8m-4Oo77Mu-16" style="edgeStyle=orthogonalEdgeStyle;rounded=0;orthogonalLoop=1;jettySize=auto;html=1;exitX=0.5;exitY=0;exitDx=0;exitDy=0;entryX=0.5;entryY=1;entryDx=0;entryDy=0;endArrow=none;endFill=0;" edge="1" parent="1" source="-BERife1kC8m-4Oo77Mu-22" target="-BERife1kC8m-4Oo77Mu-39">
          <mxGeometry relative="1" as="geometry" />
        </mxCell>
        <mxCell id="-BERife1kC8m-4Oo77Mu-17" style="edgeStyle=orthogonalEdgeStyle;rounded=0;orthogonalLoop=1;jettySize=auto;html=1;exitX=1;exitY=0.5;exitDx=0;exitDy=0;endArrow=none;endFill=0;" edge="1" parent="1" source="-BERife1kC8m-4Oo77Mu-22" target="-BERife1kC8m-4Oo77Mu-37">
          <mxGeometry relative="1" as="geometry" />
        </mxCell>
        <mxCell id="-BERife1kC8m-4Oo77Mu-18" style="edgeStyle=none;rounded=0;orthogonalLoop=1;jettySize=auto;html=1;exitX=0.25;exitY=1;exitDx=0;exitDy=0;entryX=1;entryY=0;entryDx=0;entryDy=0;startArrow=none;startFill=0;endArrow=none;endFill=0;" edge="1" parent="1" source="-BERife1kC8m-4Oo77Mu-22" target="-BERife1kC8m-4Oo77Mu-48">
          <mxGeometry relative="1" as="geometry" />
        </mxCell>
        <mxCell id="-BERife1kC8m-4Oo77Mu-19" style="edgeStyle=none;rounded=0;orthogonalLoop=1;jettySize=auto;html=1;exitX=0.75;exitY=1;exitDx=0;exitDy=0;entryX=0;entryY=0;entryDx=0;entryDy=0;startArrow=none;startFill=0;endArrow=none;endFill=0;" edge="1" parent="1" source="-BERife1kC8m-4Oo77Mu-22" target="-BERife1kC8m-4Oo77Mu-51">
          <mxGeometry relative="1" as="geometry" />
        </mxCell>
        <mxCell id="-BERife1kC8m-4Oo77Mu-20" style="edgeStyle=none;rounded=0;orthogonalLoop=1;jettySize=auto;html=1;entryX=1;entryY=0;entryDx=0;entryDy=0;startArrow=none;startFill=0;endArrow=none;endFill=0;exitX=0.41;exitY=0.998;exitDx=0;exitDy=0;exitPerimeter=0;" edge="1" parent="1" source="-BERife1kC8m-4Oo77Mu-22" target="-BERife1kC8m-4Oo77Mu-52">
          <mxGeometry relative="1" as="geometry">
            <mxPoint x="582" y="601" as="sourcePoint" />
          </mxGeometry>
        </mxCell>
        <mxCell id="-BERife1kC8m-4Oo77Mu-21" style="edgeStyle=none;rounded=0;orthogonalLoop=1;jettySize=auto;html=1;exitX=0.585;exitY=1.033;exitDx=0;exitDy=0;entryX=0.278;entryY=0.067;entryDx=0;entryDy=0;startArrow=none;startFill=0;endArrow=none;endFill=0;entryPerimeter=0;exitPerimeter=0;" edge="1" parent="1" source="-BERife1kC8m-4Oo77Mu-22" target="-BERife1kC8m-4Oo77Mu-50">
          <mxGeometry relative="1" as="geometry" />
        </mxCell>
        <mxCell id="-BERife1kC8m-4Oo77Mu-22" value="Transaksi" style="rounded=0;whiteSpace=wrap;html=1;fillColor=#dae8fc;strokeColor=#6c8ebf;" vertex="1" parent="1">
          <mxGeometry x="540" y="560" width="110" height="40" as="geometry" />
        </mxCell>
        <mxCell id="-BERife1kC8m-4Oo77Mu-23" style="edgeStyle=orthogonalEdgeStyle;rounded=0;orthogonalLoop=1;jettySize=auto;html=1;exitX=0.5;exitY=0;exitDx=0;exitDy=0;entryX=0.5;entryY=1;entryDx=0;entryDy=0;endArrow=none;endFill=0;" edge="1" parent="1" source="-BERife1kC8m-4Oo77Mu-30" target="-BERife1kC8m-4Oo77Mu-42">
          <mxGeometry relative="1" as="geometry" />
        </mxCell>
        <mxCell id="-BERife1kC8m-4Oo77Mu-24" style="edgeStyle=none;rounded=0;orthogonalLoop=1;jettySize=auto;html=1;exitX=0;exitY=0;exitDx=0;exitDy=0;entryX=1;entryY=1;entryDx=0;entryDy=0;startArrow=none;startFill=0;endArrow=none;endFill=0;" edge="1" parent="1" source="-BERife1kC8m-4Oo77Mu-30" target="-BERife1kC8m-4Oo77Mu-60">
          <mxGeometry relative="1" as="geometry" />
        </mxCell>
        <mxCell id="-BERife1kC8m-4Oo77Mu-25" style="edgeStyle=none;rounded=0;orthogonalLoop=1;jettySize=auto;html=1;exitX=0;exitY=0.5;exitDx=0;exitDy=0;entryX=1;entryY=0.5;entryDx=0;entryDy=0;startArrow=none;startFill=0;endArrow=none;endFill=0;" edge="1" parent="1" source="-BERife1kC8m-4Oo77Mu-30" target="-BERife1kC8m-4Oo77Mu-61">
          <mxGeometry relative="1" as="geometry" />
        </mxCell>
        <mxCell id="-BERife1kC8m-4Oo77Mu-26" style="edgeStyle=none;rounded=0;orthogonalLoop=1;jettySize=auto;html=1;exitX=0;exitY=1;exitDx=0;exitDy=0;entryX=0.5;entryY=0;entryDx=0;entryDy=0;startArrow=none;startFill=0;endArrow=none;endFill=0;" edge="1" parent="1" source="-BERife1kC8m-4Oo77Mu-30" target="-BERife1kC8m-4Oo77Mu-65">
          <mxGeometry relative="1" as="geometry" />
        </mxCell>
        <mxCell id="-BERife1kC8m-4Oo77Mu-27" style="edgeStyle=none;rounded=0;orthogonalLoop=1;jettySize=auto;html=1;exitX=1;exitY=0.25;exitDx=0;exitDy=0;entryX=0;entryY=1;entryDx=0;entryDy=0;startArrow=none;startFill=0;endArrow=none;endFill=0;" edge="1" parent="1" source="-BERife1kC8m-4Oo77Mu-30" target="-BERife1kC8m-4Oo77Mu-62">
          <mxGeometry relative="1" as="geometry" />
        </mxCell>
        <mxCell id="-BERife1kC8m-4Oo77Mu-28" style="edgeStyle=none;rounded=0;orthogonalLoop=1;jettySize=auto;html=1;exitX=1;exitY=0.5;exitDx=0;exitDy=0;entryX=0;entryY=0.5;entryDx=0;entryDy=0;startArrow=none;startFill=0;endArrow=none;endFill=0;" edge="1" parent="1" source="-BERife1kC8m-4Oo77Mu-30" target="-BERife1kC8m-4Oo77Mu-63">
          <mxGeometry relative="1" as="geometry" />
        </mxCell>
        <mxCell id="-BERife1kC8m-4Oo77Mu-29" style="edgeStyle=none;rounded=0;orthogonalLoop=1;jettySize=auto;html=1;exitX=1;exitY=0.75;exitDx=0;exitDy=0;entryX=0;entryY=0;entryDx=0;entryDy=0;startArrow=none;startFill=0;endArrow=none;endFill=0;" edge="1" parent="1" source="-BERife1kC8m-4Oo77Mu-30" target="-BERife1kC8m-4Oo77Mu-64">
          <mxGeometry relative="1" as="geometry" />
        </mxCell>
        <mxCell id="-BERife1kC8m-4Oo77Mu-30" value="Paket" style="rounded=0;whiteSpace=wrap;html=1;fillColor=#dae8fc;strokeColor=#6c8ebf;" vertex="1" parent="1">
          <mxGeometry x="540" y="380" width="110" height="40" as="geometry" />
        </mxCell>
        <mxCell id="-BERife1kC8m-4Oo77Mu-31" value="" style="edgeStyle=none;rounded=0;orthogonalLoop=1;jettySize=auto;html=1;startArrow=none;startFill=0;endArrow=none;endFill=0;" edge="1" parent="1" source="-BERife1kC8m-4Oo77Mu-33" target="-BERife1kC8m-4Oo77Mu-72">
          <mxGeometry relative="1" as="geometry" />
        </mxCell>
        <mxCell id="-BERife1kC8m-4Oo77Mu-32" value="" style="edgeStyle=none;rounded=0;orthogonalLoop=1;jettySize=auto;html=1;startArrow=none;startFill=0;endArrow=none;endFill=0;" edge="1" parent="1" source="-BERife1kC8m-4Oo77Mu-33" target="-BERife1kC8m-4Oo77Mu-73">
          <mxGeometry relative="1" as="geometry" />
        </mxCell>
        <mxCell id="-BERife1kC8m-4Oo77Mu-33" value="Jenis Pembayaran" style="rounded=0;whiteSpace=wrap;html=1;fillColor=#dae8fc;strokeColor=#6c8ebf;" vertex="1" parent="1">
          <mxGeometry x="630" y="205" width="120" height="40" as="geometry" />
        </mxCell>
        <mxCell id="-BERife1kC8m-4Oo77Mu-34" style="edgeStyle=orthogonalEdgeStyle;rounded=0;orthogonalLoop=1;jettySize=auto;html=1;exitX=1;exitY=0.5;exitDx=0;exitDy=0;entryX=0;entryY=0.5;entryDx=0;entryDy=0;endArrow=none;endFill=0;" edge="1" parent="1" source="-BERife1kC8m-4Oo77Mu-35" target="-BERife1kC8m-4Oo77Mu-22">
          <mxGeometry relative="1" as="geometry" />
        </mxCell>
        <mxCell id="-BERife1kC8m-4Oo77Mu-35" value="Melakukan" style="rhombus;whiteSpace=wrap;html=1;fillColor=#fff2cc;strokeColor=#d6b656;" vertex="1" parent="1">
          <mxGeometry x="390" y="545" width="90" height="70" as="geometry" />
        </mxCell>
        <mxCell id="-BERife1kC8m-4Oo77Mu-36" style="edgeStyle=orthogonalEdgeStyle;rounded=0;orthogonalLoop=1;jettySize=auto;html=1;exitX=1;exitY=0.5;exitDx=0;exitDy=0;entryX=0;entryY=0.5;entryDx=0;entryDy=0;endArrow=none;endFill=0;" edge="1" parent="1" source="-BERife1kC8m-4Oo77Mu-37" target="-BERife1kC8m-4Oo77Mu-15">
          <mxGeometry relative="1" as="geometry">
            <Array as="points">
              <mxPoint x="810" y="580" />
              <mxPoint x="810" y="580" />
            </Array>
          </mxGeometry>
        </mxCell>
        <mxCell id="-BERife1kC8m-4Oo77Mu-37" value="Dilayani" style="rhombus;whiteSpace=wrap;html=1;fillColor=#fff2cc;strokeColor=#d6b656;" vertex="1" parent="1">
          <mxGeometry x="700" y="545" width="90" height="70" as="geometry" />
        </mxCell>
        <mxCell id="-BERife1kC8m-4Oo77Mu-38" style="edgeStyle=orthogonalEdgeStyle;rounded=0;orthogonalLoop=1;jettySize=auto;html=1;exitX=0.5;exitY=0;exitDx=0;exitDy=0;entryX=0.5;entryY=1;entryDx=0;entryDy=0;endArrow=none;endFill=0;" edge="1" parent="1" source="-BERife1kC8m-4Oo77Mu-39" target="-BERife1kC8m-4Oo77Mu-30">
          <mxGeometry relative="1" as="geometry" />
        </mxCell>
        <mxCell id="-BERife1kC8m-4Oo77Mu-39" value="Memiliki" style="rhombus;whiteSpace=wrap;html=1;fillColor=#fff2cc;strokeColor=#d6b656;" vertex="1" parent="1">
          <mxGeometry x="550" y="450" width="90" height="70" as="geometry" />
        </mxCell>
        <mxCell id="-BERife1kC8m-4Oo77Mu-40" value="" style="edgeStyle=none;rounded=0;orthogonalLoop=1;jettySize=auto;html=1;startArrow=none;startFill=0;endArrow=none;endFill=0;" edge="1" parent="1" source="-BERife1kC8m-4Oo77Mu-42" target="-BERife1kC8m-4Oo77Mu-69">
          <mxGeometry relative="1" as="geometry" />
        </mxCell>
        <mxCell id="-BERife1kC8m-4Oo77Mu-41" value="" style="edgeStyle=none;rounded=0;orthogonalLoop=1;jettySize=auto;html=1;startArrow=none;startFill=0;endArrow=none;endFill=0;" edge="1" parent="1" source="-BERife1kC8m-4Oo77Mu-42" target="-BERife1kC8m-4Oo77Mu-33">
          <mxGeometry relative="1" as="geometry" />
        </mxCell>
        <mxCell id="-BERife1kC8m-4Oo77Mu-42" value="Memiliki" style="rhombus;whiteSpace=wrap;html=1;fillColor=#fff2cc;strokeColor=#d6b656;" vertex="1" parent="1">
          <mxGeometry x="550" y="260" width="90" height="70" as="geometry" />
        </mxCell>
        <mxCell id="-BERife1kC8m-4Oo77Mu-43" value="&lt;u&gt;id&lt;/u&gt;" style="ellipse;whiteSpace=wrap;html=1;fillColor=none;" vertex="1" parent="1">
          <mxGeometry x="190" y="470" width="100" height="40" as="geometry" />
        </mxCell>
        <mxCell id="-BERife1kC8m-4Oo77Mu-44" value="kode_konsumen" style="ellipse;whiteSpace=wrap;html=1;fillColor=none;" vertex="1" parent="1">
          <mxGeometry x="100" y="505" width="100" height="40" as="geometry" />
        </mxCell>
        <mxCell id="-BERife1kC8m-4Oo77Mu-45" value="nama" style="ellipse;whiteSpace=wrap;html=1;fillColor=none;" vertex="1" parent="1">
          <mxGeometry x="30" y="560" width="100" height="40" as="geometry" />
        </mxCell>
        <mxCell id="-BERife1kC8m-4Oo77Mu-46" value="alamat" style="ellipse;whiteSpace=wrap;html=1;fillColor=none;" vertex="1" parent="1">
          <mxGeometry x="50" y="615" width="110" height="40" as="geometry" />
        </mxCell>
        <mxCell id="-BERife1kC8m-4Oo77Mu-47" value="telephone" style="ellipse;whiteSpace=wrap;html=1;fillColor=none;" vertex="1" parent="1">
          <mxGeometry x="120" y="670" width="100" height="40" as="geometry" />
        </mxCell>
        <mxCell id="-BERife1kC8m-4Oo77Mu-48" value="id" style="ellipse;whiteSpace=wrap;html=1;fillColor=none;fontStyle=4;" vertex="1" parent="1">
          <mxGeometry x="415" y="640" width="100" height="40" as="geometry" />
        </mxCell>
        <mxCell id="-BERife1kC8m-4Oo77Mu-49" style="rounded=0;orthogonalLoop=1;jettySize=auto;html=1;exitX=0;exitY=0.5;exitDx=0;exitDy=0;entryX=0.5;entryY=1;entryDx=0;entryDy=0;strokeColor=#030101;fontColor=#5AA9E6;fillColor=#FFE45E;endArrow=none;endFill=0;" edge="1" parent="1" source="-BERife1kC8m-4Oo77Mu-50" target="-BERife1kC8m-4Oo77Mu-22">
          <mxGeometry relative="1" as="geometry" />
        </mxCell>
        <mxCell id="-BERife1kC8m-4Oo77Mu-50" value="diskon" style="ellipse;whiteSpace=wrap;html=1;fillColor=none;" vertex="1" parent="1">
          <mxGeometry x="650" y="680" width="100" height="40" as="geometry" />
        </mxCell>
        <mxCell id="-BERife1kC8m-4Oo77Mu-51" value="total_bayar" style="ellipse;whiteSpace=wrap;html=1;fillColor=none;" vertex="1" parent="1">
          <mxGeometry x="660" y="630" width="100" height="40" as="geometry" />
        </mxCell>
        <mxCell id="-BERife1kC8m-4Oo77Mu-52" value="id_konsumen" style="ellipse;whiteSpace=wrap;html=1;fillColor=none;" vertex="1" parent="1">
          <mxGeometry x="415" y="690" width="100" height="40" as="geometry" />
        </mxCell>
        <mxCell id="-BERife1kC8m-4Oo77Mu-53" value="kode_karyawan" style="ellipse;whiteSpace=wrap;html=1;fillColor=none;" vertex="1" parent="1">
          <mxGeometry x="930" y="420" width="100" height="40" as="geometry" />
        </mxCell>
        <mxCell id="-BERife1kC8m-4Oo77Mu-54" value="name" style="ellipse;whiteSpace=wrap;html=1;fillColor=none;" vertex="1" parent="1">
          <mxGeometry x="1010" y="450" width="100" height="40" as="geometry" />
        </mxCell>
        <mxCell id="-BERife1kC8m-4Oo77Mu-55" value="telephone" style="ellipse;whiteSpace=wrap;html=1;fillColor=none;" vertex="1" parent="1">
          <mxGeometry x="1000" y="510" width="100" height="40" as="geometry" />
        </mxCell>
        <mxCell id="-BERife1kC8m-4Oo77Mu-56" value="email" style="ellipse;whiteSpace=wrap;html=1;fillColor=none;" vertex="1" parent="1">
          <mxGeometry x="1020" y="610" width="100" height="40" as="geometry" />
        </mxCell>
        <mxCell id="-BERife1kC8m-4Oo77Mu-57" value="password" style="ellipse;whiteSpace=wrap;html=1;fillColor=none;" vertex="1" parent="1">
          <mxGeometry x="940" y="650" width="100" height="40" as="geometry" />
        </mxCell>
        <mxCell id="-BERife1kC8m-4Oo77Mu-58" value="&lt;u&gt;id&lt;/u&gt;" style="ellipse;whiteSpace=wrap;html=1;fillColor=none;" vertex="1" parent="1">
          <mxGeometry x="850" y="460" width="100" height="40" as="geometry" />
        </mxCell>
        <mxCell id="-BERife1kC8m-4Oo77Mu-59" value="role" style="ellipse;whiteSpace=wrap;html=1;fillColor=none;" vertex="1" parent="1">
          <mxGeometry x="840" y="630" width="100" height="40" as="geometry" />
        </mxCell>
        <mxCell id="-BERife1kC8m-4Oo77Mu-60" value="&lt;u&gt;id&lt;/u&gt;" style="ellipse;whiteSpace=wrap;html=1;fillColor=none;" vertex="1" parent="1">
          <mxGeometry x="415" y="330" width="100" height="40" as="geometry" />
        </mxCell>
        <mxCell id="-BERife1kC8m-4Oo77Mu-61" value="nama" style="ellipse;whiteSpace=wrap;html=1;fillColor=none;" vertex="1" parent="1">
          <mxGeometry x="340" y="380" width="100" height="40" as="geometry" />
        </mxCell>
        <mxCell id="-BERife1kC8m-4Oo77Mu-62" value="jumlah_hari" style="ellipse;whiteSpace=wrap;html=1;fillColor=none;" vertex="1" parent="1">
          <mxGeometry x="690" y="330" width="100" height="40" as="geometry" />
        </mxCell>
        <mxCell id="-BERife1kC8m-4Oo77Mu-63" value="harga" style="ellipse;whiteSpace=wrap;html=1;fillColor=none;" vertex="1" parent="1">
          <mxGeometry x="740" y="380" width="100" height="40" as="geometry" />
        </mxCell>
        <mxCell id="-BERife1kC8m-4Oo77Mu-64" value="satuan" style="ellipse;whiteSpace=wrap;html=1;fillColor=none;" vertex="1" parent="1">
          <mxGeometry x="680" y="420" width="100" height="40" as="geometry" />
        </mxCell>
        <mxCell id="-BERife1kC8m-4Oo77Mu-65" value="jenis" style="ellipse;whiteSpace=wrap;html=1;fillColor=none;" vertex="1" parent="1">
          <mxGeometry x="400" y="430" width="100" height="40" as="geometry" />
        </mxCell>
        <mxCell id="-BERife1kC8m-4Oo77Mu-66" style="edgeStyle=none;rounded=0;orthogonalLoop=1;jettySize=auto;html=1;entryX=0;entryY=0.5;entryDx=0;entryDy=0;startArrow=none;startFill=0;endArrow=none;endFill=0;" edge="1" parent="1" source="-BERife1kC8m-4Oo77Mu-42" target="-BERife1kC8m-4Oo77Mu-42">
          <mxGeometry relative="1" as="geometry" />
        </mxCell>
        <mxCell id="-BERife1kC8m-4Oo77Mu-67" value="" style="edgeStyle=none;rounded=0;orthogonalLoop=1;jettySize=auto;html=1;startArrow=none;startFill=0;endArrow=none;endFill=0;" edge="1" parent="1" source="-BERife1kC8m-4Oo77Mu-69" target="-BERife1kC8m-4Oo77Mu-70">
          <mxGeometry relative="1" as="geometry" />
        </mxCell>
        <mxCell id="-BERife1kC8m-4Oo77Mu-68" value="" style="edgeStyle=none;rounded=0;orthogonalLoop=1;jettySize=auto;html=1;startArrow=none;startFill=0;endArrow=none;endFill=0;" edge="1" parent="1" source="-BERife1kC8m-4Oo77Mu-69" target="-BERife1kC8m-4Oo77Mu-71">
          <mxGeometry relative="1" as="geometry" />
        </mxCell>
        <mxCell id="-BERife1kC8m-4Oo77Mu-69" value="Status Pesanan" style="rounded=0;whiteSpace=wrap;html=1;fillColor=#dae8fc;strokeColor=#6c8ebf;" vertex="1" parent="1">
          <mxGeometry x="450" y="205" width="110" height="40" as="geometry" />
        </mxCell>
        <mxCell id="-BERife1kC8m-4Oo77Mu-70" value="&lt;u&gt;id&lt;/u&gt;" style="ellipse;whiteSpace=wrap;html=1;fillColor=none;" vertex="1" parent="1">
          <mxGeometry x="390" y="150" width="100" height="40" as="geometry" />
        </mxCell>
        <mxCell id="-BERife1kC8m-4Oo77Mu-71" value="nama" style="ellipse;whiteSpace=wrap;html=1;fillColor=none;" vertex="1" parent="1">
          <mxGeometry x="330" y="220" width="100" height="40" as="geometry" />
        </mxCell>
        <mxCell id="-BERife1kC8m-4Oo77Mu-72" value="&lt;u&gt;id&lt;/u&gt;" style="ellipse;whiteSpace=wrap;html=1;fillColor=none;" vertex="1" parent="1">
          <mxGeometry x="690" y="150" width="80" height="30" as="geometry" />
        </mxCell>
        <mxCell id="-BERife1kC8m-4Oo77Mu-73" value="nama" style="ellipse;whiteSpace=wrap;html=1;fillColor=none;fontStyle=0;" vertex="1" parent="1">
          <mxGeometry x="780" y="165" width="80" height="40" as="geometry" />
        </mxCell>
        <mxCell id="-BERife1kC8m-4Oo77Mu-74" style="edgeStyle=none;rounded=0;orthogonalLoop=1;jettySize=auto;html=1;exitX=0.5;exitY=1;exitDx=0;exitDy=0;startArrow=none;startFill=0;endArrow=none;endFill=0;" edge="1" parent="1" source="-BERife1kC8m-4Oo77Mu-71" target="-BERife1kC8m-4Oo77Mu-71">
          <mxGeometry relative="1" as="geometry" />
        </mxCell>
        <mxCell id="-BERife1kC8m-4Oo77Mu-75" style="rounded=0;orthogonalLoop=1;jettySize=auto;html=1;exitX=1;exitY=0.5;exitDx=0;exitDy=0;strokeColor=#000000;fontColor=#5AA9E6;fillColor=#FFE45E;endArrow=none;endFill=0;" edge="1" parent="1" source="-BERife1kC8m-4Oo77Mu-76">
          <mxGeometry relative="1" as="geometry">
            <mxPoint x="590" y="600" as="targetPoint" />
          </mxGeometry>
        </mxCell>
        <mxCell id="-BERife1kC8m-4Oo77Mu-76" value="paket_id" style="ellipse;whiteSpace=wrap;html=1;fillColor=none;" vertex="1" parent="1">
          <mxGeometry x="410" y="810" width="100" height="40" as="geometry" />
        </mxCell>
        <mxCell id="-BERife1kC8m-4Oo77Mu-77" style="rounded=0;orthogonalLoop=1;jettySize=auto;html=1;exitX=1;exitY=0.5;exitDx=0;exitDy=0;entryX=0.5;entryY=1;entryDx=0;entryDy=0;strokeColor=default;fontColor=#5AA9E6;fillColor=#FFE45E;endArrow=none;endFill=0;" edge="1" parent="1" source="-BERife1kC8m-4Oo77Mu-78" target="-BERife1kC8m-4Oo77Mu-22">
          <mxGeometry relative="1" as="geometry" />
        </mxCell>
        <mxCell id="-BERife1kC8m-4Oo77Mu-78" value="id_karyawan" style="ellipse;whiteSpace=wrap;html=1;fillColor=none;" vertex="1" parent="1">
          <mxGeometry x="400" y="750" width="100" height="40" as="geometry" />
        </mxCell>
        <mxCell id="-BERife1kC8m-4Oo77Mu-79" style="rounded=0;orthogonalLoop=1;jettySize=auto;html=1;exitX=1;exitY=0.5;exitDx=0;exitDy=0;strokeColor=#000000;fontColor=#5AA9E6;fillColor=#FFE45E;endArrow=none;endFill=0;" edge="1" parent="1" source="-BERife1kC8m-4Oo77Mu-80">
          <mxGeometry relative="1" as="geometry">
            <mxPoint x="590" y="600" as="targetPoint" />
            <Array as="points" />
          </mxGeometry>
        </mxCell>
        <mxCell id="-BERife1kC8m-4Oo77Mu-80" value="berat" style="ellipse;whiteSpace=wrap;html=1;fillColor=none;" vertex="1" parent="1">
          <mxGeometry x="410" y="930" width="100" height="40" as="geometry" />
        </mxCell>
        <mxCell id="-BERife1kC8m-4Oo77Mu-81" style="rounded=0;orthogonalLoop=1;jettySize=auto;html=1;exitX=1;exitY=0.5;exitDx=0;exitDy=0;strokeColor=#000000;fontColor=#5AA9E6;fillColor=#FFE45E;endArrow=none;endFill=0;" edge="1" parent="1" source="-BERife1kC8m-4Oo77Mu-82">
          <mxGeometry relative="1" as="geometry">
            <mxPoint x="590" y="600" as="targetPoint" />
          </mxGeometry>
        </mxCell>
        <mxCell id="-BERife1kC8m-4Oo77Mu-82" value="invoice" style="ellipse;whiteSpace=wrap;html=1;fillColor=none;" vertex="1" parent="1">
          <mxGeometry x="410" y="870" width="100" height="40" as="geometry" />
        </mxCell>
        <mxCell id="-BERife1kC8m-4Oo77Mu-83" style="rounded=0;orthogonalLoop=1;jettySize=auto;html=1;exitX=0;exitY=0.5;exitDx=0;exitDy=0;strokeColor=#000000;fontColor=#5AA9E6;fillColor=#FFE45E;endArrow=none;endFill=0;" edge="1" parent="1" source="-BERife1kC8m-4Oo77Mu-84">
          <mxGeometry relative="1" as="geometry">
            <mxPoint x="590" y="610" as="targetPoint" />
          </mxGeometry>
        </mxCell>
        <mxCell id="-BERife1kC8m-4Oo77Mu-84" value="tanggal_masuk" style="ellipse;whiteSpace=wrap;html=1;fillColor=none;" vertex="1" parent="1">
          <mxGeometry x="660" y="870" width="100" height="40" as="geometry" />
        </mxCell>
        <mxCell id="-BERife1kC8m-4Oo77Mu-85" style="rounded=0;orthogonalLoop=1;jettySize=auto;html=1;exitX=0;exitY=0.5;exitDx=0;exitDy=0;strokeColor=#000000;fontColor=#5AA9E6;fillColor=#FFE45E;endArrow=none;endFill=0;" edge="1" parent="1" source="-BERife1kC8m-4Oo77Mu-86">
          <mxGeometry relative="1" as="geometry">
            <mxPoint x="590" y="600" as="targetPoint" />
          </mxGeometry>
        </mxCell>
        <mxCell id="-BERife1kC8m-4Oo77Mu-86" value="tanggal_keluar" style="ellipse;whiteSpace=wrap;html=1;fillColor=none;" vertex="1" parent="1">
          <mxGeometry x="655" y="940" width="100" height="40" as="geometry" />
        </mxCell>
        <mxCell id="-BERife1kC8m-4Oo77Mu-87" style="rounded=0;orthogonalLoop=1;jettySize=auto;html=1;exitX=0;exitY=0.5;exitDx=0;exitDy=0;strokeColor=#080304;fontColor=#5AA9E6;fillColor=#FFE45E;endArrow=none;endFill=0;" edge="1" parent="1" source="-BERife1kC8m-4Oo77Mu-88">
          <mxGeometry relative="1" as="geometry">
            <mxPoint x="590" y="600" as="targetPoint" />
          </mxGeometry>
        </mxCell>
        <mxCell id="-BERife1kC8m-4Oo77Mu-88" value="tipe_pembayaran_id" style="ellipse;whiteSpace=wrap;html=1;fillColor=none;" vertex="1" parent="1">
          <mxGeometry x="660" y="740" width="130" height="40" as="geometry" />
        </mxCell>
        <mxCell id="-BERife1kC8m-4Oo77Mu-89" style="rounded=0;orthogonalLoop=1;jettySize=auto;html=1;exitX=0;exitY=0.5;exitDx=0;exitDy=0;strokeColor=#000000;fontColor=#5AA9E6;fillColor=#FFE45E;endArrow=none;endFill=0;" edge="1" parent="1" source="-BERife1kC8m-4Oo77Mu-90">
          <mxGeometry relative="1" as="geometry">
            <mxPoint x="590" y="600" as="targetPoint" />
          </mxGeometry>
        </mxCell>
        <mxCell id="-BERife1kC8m-4Oo77Mu-90" value="status_pesanan_id" style="ellipse;whiteSpace=wrap;html=1;fillColor=none;" vertex="1" parent="1">
          <mxGeometry x="660" y="810" width="130" height="40" as="geometry" />
        </mxCell>
        <mxCell id="-BERife1kC8m-4Oo77Mu-91" style="edgeStyle=none;curved=1;rounded=0;orthogonalLoop=1;jettySize=auto;html=1;exitX=0.5;exitY=0;exitDx=0;exitDy=0;entryX=0.5;entryY=1;entryDx=0;entryDy=0;fontSize=12;startSize=8;endSize=8;endArrow=none;endFill=0;" edge="1" parent="1" source="-BERife1kC8m-4Oo77Mu-92" target="-BERife1kC8m-4Oo77Mu-7">
          <mxGeometry relative="1" as="geometry" />
        </mxCell>
        <mxCell id="-BERife1kC8m-4Oo77Mu-92" value="email" style="ellipse;whiteSpace=wrap;html=1;fillColor=none;" vertex="1" parent="1">
          <mxGeometry x="210" y="640" width="100" height="40" as="geometry" />
        </mxCell>
        <mxCell id="-BERife1kC8m-4Oo77Mu-93" value="no_rekening" style="ellipse;whiteSpace=wrap;html=1;fillColor=none;fontStyle=0;" vertex="1" parent="1">
          <mxGeometry x="810" y="220" width="80" height="40" as="geometry" />
        </mxCell>
        <mxCell id="-BERife1kC8m-4Oo77Mu-94" value="nama_pemilik" style="ellipse;whiteSpace=wrap;html=1;fillColor=none;fontStyle=0;" vertex="1" parent="1">
          <mxGeometry x="720" y="260" width="90" height="40" as="geometry" />
        </mxCell>
      </root>
    </mxGraphModel>
  </diagram>
</mxfile>
